<?xml version="1.0" encoding="UTF-8" standalone="no"?>
<svg width="180px" height="148px" viewBox="0 0 180 148" version="1.1" xmlns="http://www.w3.org/2000/svg" xmlns:xlink="http://www.w3.org/1999/xlink" xmlns:sketch="http://www.bohemiancoding.com/sketch/ns">
    <!-- Generator: Sketch 3.4 (15575) - http://www.bohemiancoding.com/sketch -->
    <title>第二步</title>
    <desc>Created with Sketch.</desc>
    <defs>
        <path d="M64.060241,127.599989 C99.2180986,127.599989 127.719174,99.1253041 127.719174,64 C127.719174,28.8746959 99.2180986,0.400010851 64.060241,0.400010851 C28.9023833,0.400010851 0.401308358,28.8746959 0.401308358,64 C0.401308358,99.1253041 28.9023833,127.599989 64.060241,127.599989 Z M64.060241,117.96213 C93.8903227,117.96213 118.072382,93.8024613 118.072382,64 C118.072382,34.1975387 93.8903227,10.0378702 64.060241,10.0378702 C34.2301592,10.0378702 10.0481,34.1975387 10.0481,64 C10.0481,93.8024613 34.2301592,117.96213 64.060241,117.96213 Z" id="path-1"></path>
    </defs>
    <g id="Beta_UIKit" stroke="none" stroke-width="1" fill="none" fill-rule="evenodd" sketch:type="MSPage">
        <g id="第二步" sketch:type="MSArtboardGroup">
            <g id="Group-Copy-5" sketch:type="MSLayerGroup" transform="translate(22.000000, 11.000000)">
                <text id="Type-something-Copy" sketch:type="MSTextLayer" font-family="Source Han Sans CN" font-size="12" font-weight="normal" fill="#999999">
                    <tspan x="67.6746988" y="86.0277778">债券</tspan>
                </text>
                <text id="股票-copy" sketch:type="MSTextLayer" font-family="Source Han Sans CN" font-size="12" font-weight="normal" fill="#999999">
                    <tspan x="37.1084337" y="86.0277778">股票</tspan>
                </text>
                <text id="70-copy" sketch:type="MSTextLayer" font-family="Source Han Sans CN" font-size="24" font-weight="260" line-spacing="66.9600014" fill="#5E65B5">
                    <tspan x="32.9156627" y="22.3177764">70</tspan>
                </text>
                <text id="/30-copy" sketch:type="MSTextLayer" font-family="Source Han Sans CN" font-size="24" font-weight="260" line-spacing="66.9600014" fill="#00A9F1">
                    <tspan x="59.6385542" y="22.3177764">/30</tspan>
                </text>
                <g id="Group-Copy-4">
                    <mask id="mask-2" sketch:name="Mask" fill="white">
                        <use xlink:href="#path-1"></use>
                    </mask>
                    <use id="Mask" fill="#D8D8D8" sketch:type="MSShapeGroup" xlink:href="#path-1"></use>
                    <g id="Group" mask="url(#mask-2)" sketch:type="MSShapeGroup">
                        <g transform="translate(-49.795181, -46.138889)">
                            <path d="M88.5542169,0 L139.156627,0 L113.855422,110.138889 L88.5542169,0 Z" id="Rectangle-1518" stroke="none" fill="#D8D8D8"></path>
                            <path d="M88.5542169,110.138889 L139.156627,110.138889 L113.855422,220.277778 L88.5542169,110.138889 Z" id="Rectangle-1518-Copy" stroke="none" fill="#D8D8D8" transform="translate(113.855422, 165.208333) scale(-1, -1) translate(-113.855422, -165.208333) "></path>
                            <path d="M88.5542169,0 L139.156627,0 L113.855422,110.138889 L88.5542169,0 Z" id="Rectangle-1518" stroke="none" fill="#30C9FD"></path>
                            <path d="M88.5542169,110.138889 L139.156627,110.138889 L113.855422,220.277778 L88.5542169,110.138889 Z" id="Rectangle-1518-Copy" stroke="none" fill="#5E65B5" transform="translate(113.855422, 165.208333) scale(-1, -1) translate(-113.855422, -165.208333) "></path>
                            <path d="M138.617318,5.54223334e-13 L184.337349,22.5758518 L113.855422,110.138889 L138.617318,5.54223334e-13 L138.617318,5.54223334e-13 Z" id="Rectangle-1518" stroke="none" fill="#30C9FD"></path>
                            <path d="M43.373494,197.701926 L113.855422,110.138889 L89.0935254,220.277778 L43.373494,197.701926 Z" id="Rectangle-1518-Copy" stroke="none" fill="#5E65B5"></path>
                            <path d="M229.518072,92.0833333 L220.025421,158.888889 L115.662651,110.319413 L229.518072,92.0833333 L229.518072,92.0833333 Z" id="Rectangle-1518" stroke="none" fill="#0080FF"></path>
                            <path d="M1.80722892,128.194444 L11.2998805,61.3888889 L115.662651,109.958365 L1.80722892,128.194444 L1.80722892,128.194444 Z" id="Rectangle-1518-Copy" stroke="none" fill="#6E76D4"></path>
                            <path d="M204.20684,37.9166667 L229.518072,100.573793 L115.662651,110.138889 L204.20684,37.9166667 L204.20684,37.9166667 Z" id="Rectangle-1518" stroke="none" fill="#0095FF"></path>
                            <path d="M25.3112324,182.361111 L-1.12265752e-12,119.703985 L113.855422,110.138889 L25.3112324,182.361111 L25.3112324,182.361111 Z" id="Rectangle-1518-Copy" stroke="none" fill="#6E76D4"></path>
                            <path d="M174.790452,12.6388889 L220.481928,62.5237995 L115.662651,110.138889 L174.790452,12.6388889 L174.790452,12.6388889 Z" id="Rectangle-1518" stroke="none" fill="#00B3FF"></path>
                            <path d="M56.5348489,207.638889 L10.8433735,157.753978 L115.662651,110.138889 L56.5348489,207.638889 L56.5348489,207.638889 Z" id="Rectangle-1518-Copy" stroke="none" fill="#666EC5"></path>
                            <path d="M175.301205,202.577523 L137.787458,218.472222 L113.855422,110.138889 L175.301205,202.577523 L175.301205,202.577523 Z" id="Rectangle-1518" stroke="none" fill="#006CD6"></path>
                            <path d="M52.4096386,17.700255 L89.9233856,1.80555556 L113.855422,110.138889 L52.4096386,17.700255 L52.4096386,17.700255 Z" id="Rectangle-1518-Copy" stroke="none" fill="#71DEFF"></path>
                            <path d="M217.674699,157.506147 L175.778345,205.833333 L114.662651,110.138889 L217.674699,157.506147 L217.674699,157.506147 Z" id="Rectangle-1518" stroke="none" fill="#006CD6"></path>
                            <path d="M10.8433735,62.7716311 L52.7397274,14.4444444 L113.855422,110.138889 L10.8433735,62.7716311 L10.8433735,62.7716311 Z" id="Rectangle-1518-Copy" stroke="#7781E6" stroke-width="1" fill="#7781E6"></path>
                        </g>
                    </g>
                </g>
            </g>
        </g>
    </g>
</svg>