<?xml version="1.0" encoding="UTF-8" standalone="no"?>
<svg width="180px" height="148px" viewBox="0 0 180 148" version="1.1" xmlns="http://www.w3.org/2000/svg" xmlns:xlink="http://www.w3.org/1999/xlink" xmlns:sketch="http://www.bohemiancoding.com/sketch/ns">
    <!-- Generator: Sketch 3.4 (15575) - http://www.bohemiancoding.com/sketch -->
    <title>第三步</title>
    <desc>Created with Sketch.</desc>
    <defs></defs>
    <g id="Beta_UIKit" stroke="none" stroke-width="1" fill="none" fill-rule="evenodd" sketch:type="MSPage">
        <g id="第三步" sketch:type="MSArtboardGroup">
            <path d="M57,135 L125,135" id="Line-Copy-42" stroke="#00A9F1" stroke-width="2" stroke-linecap="round" sketch:type="MSShapeGroup"></path>
            <rect id="Rectangle-831-Copy" stroke="#00A9F1" stroke-width="2" sketch:type="MSShapeGroup" x="67" y="120" width="48" height="16"></rect>
            <rect id="Rectangle-830-Copy-2" stroke="#00A9F1" stroke-width="2" sketch:type="MSShapeGroup" x="13" y="9" width="156" height="108" rx="4"></rect>
            <rect id="Rectangle-830-Copy-3" stroke="#00A9F1" sketch:type="MSShapeGroup" x="19" y="15" width="144" height="88" rx="2"></rect>
            <rect id="Rectangle-832-Copy-5" stroke="#CCCCCC" sketch:type="MSShapeGroup" x="63" y="40" width="56" height="7"></rect>
            <rect id="Rectangle-832-Copy-6" stroke="#CCCCCC" sketch:type="MSShapeGroup" x="63" y="58" width="56" height="7"></rect>
            <rect id="Rectangle-832-Copy-7" stroke="#CCCCCC" sketch:type="MSShapeGroup" x="63" y="49" width="56" height="7"></rect>
            <rect id="Rectangle-832-Copy-8" stroke="#CCCCCC" sketch:type="MSShapeGroup" x="63" y="67" width="28" height="7"></rect>
            <rect id="Rectangle-832-Copy-9" fill="#CCCCCC" sketch:type="MSShapeGroup" x="91" y="67" width="28" height="7"></rect>
            <path d="M110.692388,79.6923882 L113.692388,79.6923882 L109.192388,67.6923882 L104.692388,79.6923882 L107.692388,79.6923882 L107.692388,84.6923882 L110.692388,84.6923882 L110.692388,79.6923882 Z" id="Rectangle-837-Copy" stroke="#979797" fill="#D8D8D8" sketch:type="MSShapeGroup" transform="translate(109.192388, 76.192388) scale(-1, 1) rotate(-315.000000) translate(-109.192388, -76.192388) "></path>
        </g>
    </g>
</svg>