<?xml version="1.0" encoding="UTF-8" standalone="no"?>
<svg width="180px" height="148px" viewBox="0 0 180 148" version="1.1" xmlns="http://www.w3.org/2000/svg" xmlns:xlink="http://www.w3.org/1999/xlink" xmlns:sketch="http://www.bohemiancoding.com/sketch/ns">
    <!-- Generator: Sketch 3.4 (15575) - http://www.bohemiancoding.com/sketch -->
    <title>第一步</title>
    <desc>Created with Sketch.</desc>
    <defs></defs>
    <g id="Beta_UIKit" stroke="none" stroke-width="1" fill="none" fill-rule="evenodd" sketch:type="MSPage">
        <g id="第一步" sketch:type="MSArtboardGroup">
            <path d="M47,133 C43.5702154,133 41,130.442308 41,127 L41,25 C41,21.5434423 43.5846154,19 47,19 L107,19 L137,49 L137,126.00066 C137,129.866289 133.87586,133 129.99405,133 L47,133 Z" id="iconfont-fasongwenjianfawen1300-copy-4" stroke="#00A9F1" stroke-width="2" sketch:type="MSShapeGroup"></path>
            <path d="M141,73 L141,126.992688 C141,132.519574 136.521502,137 131.002901,137 L71,137" id="iconfont-fasongwenjianfawen1300-copy-5" stroke="#CCCCCC" stroke-width="2" stroke-linecap="round" sketch:type="MSShapeGroup"></path>
            <text id="A-Copy-3" sketch:type="MSTextLayer" font-family="DIN Alternate" font-size="28" font-weight="bold" fill="#5E65B5">
                <tspan x="54" y="54">A</tspan>
            </text>
            <g id="Rectangle-788-Copy-4-+-Rectangle-788-Copy-5-Copy" sketch:type="MSLayerGroup" transform="translate(70.000000, 34.000000)" fill="#5E65B5">
                <rect id="Rectangle-788-Copy-4" sketch:type="MSShapeGroup" x="0" y="4" width="10" height="2"></rect>
                <rect id="Rectangle-788-Copy-5" sketch:type="MSShapeGroup" x="4" y="0" width="2" height="10"></rect>
            </g>
            <path d="M106,20 L106,50 L135,50" id="Path-713-Copy" stroke="#00A9F1" stroke-width="2" sketch:type="MSShapeGroup"></path>
            <text id="收入、年龄-copy" sketch:type="MSTextLayer" font-family="Source Han Sans CN" font-size="9" font-weight="normal" line-spacing="16" fill="#999999">
                <tspan x="49" y="66">收入、年龄</tspan>
                <tspan x="49" y="87">投资周期、目的</tspan>
                <tspan x="49" y="108">风险承受区间</tspan>
            </text>
            <g id="iconfont-ayixiangqingduihao-copy-4" sketch:type="MSLayerGroup" transform="translate(117.000000, 64.000000)" fill="#5E65B5">
                <path d="M6.01160225,12 C5.54242417,12 5.07084358,11.9444383 4.6032037,11.8323481 C1.38546568,11.0623801 -0.604618764,7.81911864 0.165620252,4.60245885 C0.935859269,1.38540356 4.1816217,-0.604724328 7.39666422,0.165683197 C8.0886312,0.330654382 8.73749949,0.613443294 9.324049,1.00477745 C9.53995266,1.14793704 9.5991218,1.43948575 9.45502977,1.65577056 C9.31139187,1.87165986 9.01944289,1.93082507 8.80352458,1.78628852 C8.30876856,1.45658052 7.76152354,1.21912866 7.17806506,1.07949934 C4.46580647,0.430220102 1.72903933,2.10873087 1.07932138,4.82149758 C0.429588772,7.53404457 2.10901688,10.2702196 4.82156847,10.919909 C6.13681114,11.23428 7.49491811,11.0190645 8.64564741,10.3115429 C9.79809069,9.60497347 10.6057005,8.49146924 10.9207809,7.17744196 C11.0882096,6.47569187 11.1060086,5.76358529 10.9732553,5.06136645 C10.9252344,4.80725926 11.0924432,4.56115014 11.346582,4.51267832 C11.601629,4.46575924 11.8478131,4.63159468 11.8955996,4.8873132 C12.0532424,5.71997677 12.0321325,6.56352416 11.8337935,7.39596799 C11.4595439,8.95437587 10.5029785,10.2741746 9.13703406,11.1115404 C8.18092277,11.6987394 7.10516938,12 6.01160225,12 L6.01160225,12 Z M6.16726091,9 C6.04682373,9 5.93160978,8.95038896 5.84555643,8.86140965 L3.14099373,6.08337463 C2.95702656,5.89477636 2.95246706,5.58494397 3.13096571,5.3910335 C3.30878622,5.19759624 3.60158981,5.19199401 3.78487883,5.38083652 L6.1469163,7.80742694 L11.1961009,1.96005614 C11.3680056,1.7602992 11.6604196,1.74503426 11.8487155,1.92827455 C12.0377616,2.11110267 12.0515699,2.42044659 11.8792179,2.61991349 L6.50893484,8.84078673 C6.42439651,8.93738324 6.3060948,8.99581741 6.18130013,8.99928255 C6.17668291,8.99928255 6.17251299,9 6.16726091,9 L6.16726091,9 Z" id="iconfont-ayixiangqingduihao" sketch:type="MSShapeGroup"></path>
            </g>
            <g id="iconfont-ayixiangqingduihao-copy-5" sketch:type="MSLayerGroup" transform="translate(117.000000, 85.000000)" fill="#5E65B5">
                <path d="M6.01160225,12 C5.54242417,12 5.07084358,11.9444383 4.6032037,11.8323481 C1.38546568,11.0623801 -0.604618764,7.81911864 0.165620252,4.60245885 C0.935859269,1.38540356 4.1816217,-0.604724328 7.39666422,0.165683197 C8.0886312,0.330654382 8.73749949,0.613443294 9.324049,1.00477745 C9.53995266,1.14793704 9.5991218,1.43948575 9.45502977,1.65577056 C9.31139187,1.87165986 9.01944289,1.93082507 8.80352458,1.78628852 C8.30876856,1.45658052 7.76152354,1.21912866 7.17806506,1.07949934 C4.46580647,0.430220102 1.72903933,2.10873087 1.07932138,4.82149758 C0.429588772,7.53404457 2.10901688,10.2702196 4.82156847,10.919909 C6.13681114,11.23428 7.49491811,11.0190645 8.64564741,10.3115429 C9.79809069,9.60497347 10.6057005,8.49146924 10.9207809,7.17744196 C11.0882096,6.47569187 11.1060086,5.76358529 10.9732553,5.06136645 C10.9252344,4.80725926 11.0924432,4.56115014 11.346582,4.51267832 C11.601629,4.46575924 11.8478131,4.63159468 11.8955996,4.8873132 C12.0532424,5.71997677 12.0321325,6.56352416 11.8337935,7.39596799 C11.4595439,8.95437587 10.5029785,10.2741746 9.13703406,11.1115404 C8.18092277,11.6987394 7.10516938,12 6.01160225,12 L6.01160225,12 Z M6.16726091,9 C6.04682373,9 5.93160978,8.95038896 5.84555643,8.86140965 L3.14099373,6.08337463 C2.95702656,5.89477636 2.95246706,5.58494397 3.13096571,5.3910335 C3.30878622,5.19759624 3.60158981,5.19199401 3.78487883,5.38083652 L6.1469163,7.80742694 L11.1961009,1.96005614 C11.3680056,1.7602992 11.6604196,1.74503426 11.8487155,1.92827455 C12.0377616,2.11110267 12.0515699,2.42044659 11.8792179,2.61991349 L6.50893484,8.84078673 C6.42439651,8.93738324 6.3060948,8.99581741 6.18130013,8.99928255 C6.17668291,8.99928255 6.17251299,9 6.16726091,9 L6.16726091,9 Z" id="iconfont-ayixiangqingduihao" sketch:type="MSShapeGroup"></path>
            </g>
            <g id="iconfont-ayixiangqingduihao-copy-6" sketch:type="MSLayerGroup" transform="translate(117.000000, 106.000000)" fill="#5E65B5">
                <path d="M6.01160225,12 C5.54242417,12 5.07084358,11.9444383 4.6032037,11.8323481 C1.38546568,11.0623801 -0.604618764,7.81911864 0.165620252,4.60245885 C0.935859269,1.38540356 4.1816217,-0.604724328 7.39666422,0.165683197 C8.0886312,0.330654382 8.73749949,0.613443294 9.324049,1.00477745 C9.53995266,1.14793704 9.5991218,1.43948575 9.45502977,1.65577056 C9.31139187,1.87165986 9.01944289,1.93082507 8.80352458,1.78628852 C8.30876856,1.45658052 7.76152354,1.21912866 7.17806506,1.07949934 C4.46580647,0.430220102 1.72903933,2.10873087 1.07932138,4.82149758 C0.429588772,7.53404457 2.10901688,10.2702196 4.82156847,10.919909 C6.13681114,11.23428 7.49491811,11.0190645 8.64564741,10.3115429 C9.79809069,9.60497347 10.6057005,8.49146924 10.9207809,7.17744196 C11.0882096,6.47569187 11.1060086,5.76358529 10.9732553,5.06136645 C10.9252344,4.80725926 11.0924432,4.56115014 11.346582,4.51267832 C11.601629,4.46575924 11.8478131,4.63159468 11.8955996,4.8873132 C12.0532424,5.71997677 12.0321325,6.56352416 11.8337935,7.39596799 C11.4595439,8.95437587 10.5029785,10.2741746 9.13703406,11.1115404 C8.18092277,11.6987394 7.10516938,12 6.01160225,12 L6.01160225,12 Z M6.16726091,9 C6.04682373,9 5.93160978,8.95038896 5.84555643,8.86140965 L3.14099373,6.08337463 C2.95702656,5.89477636 2.95246706,5.58494397 3.13096571,5.3910335 C3.30878622,5.19759624 3.60158981,5.19199401 3.78487883,5.38083652 L6.1469163,7.80742694 L11.1961009,1.96005614 C11.3680056,1.7602992 11.6604196,1.74503426 11.8487155,1.92827455 C12.0377616,2.11110267 12.0515699,2.42044659 11.8792179,2.61991349 L6.50893484,8.84078673 C6.42439651,8.93738324 6.3060948,8.99581741 6.18130013,8.99928255 C6.17668291,8.99928255 6.17251299,9 6.16726091,9 L6.16726091,9 Z" id="iconfont-ayixiangqingduihao" sketch:type="MSShapeGroup"></path>
            </g>
            <rect id="Rectangle-865-Copy" fill="#CCCCCC" sketch:type="MSShapeGroup" x="139" y="66" width="2" height="19" rx="75"></rect>
            <rect id="Rectangle-866-Copy" fill="#CCCCCC" sketch:type="MSShapeGroup" x="62" y="135" width="12" height="2" rx="89"></rect>
        </g>
    </g>
</svg>